<svg xmlns="http://www.w3.org/2000/svg" width="175" height="243" viewBox="0 0 175 243"><g><g><path fill="#3a5cac" d="M149.678 85.204V49.516C149.678 22.2 127.535.006 100.314 0v8.596l-7.275 17.372c2.31-.723 4.718-1.218 7.265-1.218 13.587 0 24.658 11.124 24.658 24.766v35.688h-24.648v10.804l9.97 9.783L84 133.745l14.004 30.637-9.502 14.802 32.679 13.487-23.558 18.57L100.062 235H175V85.204z"/></g><g><path fill="#3a5cac" d="M63.168 187.184l9.553-14.802-14.072-30.637 26.412-27.954-10.019-9.783V93.21H50.26V57.521c0-11.088 7.388-20.406 17.473-23.543l7.31-17.377V8h-.01C47.685 8 25.435 30.201 25.435 57.52v35.69H0V243h74.789l-2.45-23.76L96 200.671z"/></g></g></svg>