<svg xmlns="http://www.w3.org/2000/svg" width="97" height="130" viewBox="0 0 97 130"><g><g><path fill="#3a5cac" d="M90.351 40.111c-1.632-1.633-4.557-1.633-6.19 0L70.117 53.885l-5.405-5.408a4.182 4.182 0 0 0-5.911 5.914l8.36 8.366a4.165 4.165 0 0 0 2.956 1.226c1.07 0 2.14-.409 2.956-1.226l17.278-16.73a4.183 4.183 0 0 0 0-5.916zM73 12.297v8.198c0 2.263-1.81 4.1-4.042 4.1H28.542c-2.231 0-4.042-1.837-4.042-4.1v-8.198c0-2.262 1.81-4.099 4.042-4.099h8.77C38.985 3.427 43.48 0 48.75 0c5.27 0 9.765 3.427 11.43 8.198h8.778c2.231 0 4.042 1.837 4.042 4.1zM97 24.2v97.662c0 4.565-3.549 8.138-8.083 8.138H8.083C3.55 130 0 126.427 0 121.862V24.2c0-4.484 3.63-8.138 8.083-8.138h8.084v4.069c0 6.73 5.44 12.208 12.125 12.208h40.416c6.685 0 12.125-5.477 12.125-12.208v-4.07h8.084c4.534 0 8.083 3.574 8.083 8.14zM24.667 70.987c0 8.977 7.25 16.277 16.166 16.277S57 79.964 57 70.987c0-8.976-7.25-16.277-16.167-16.277-8.916 0-16.166 7.3-16.166 16.277zm48.5 34.114c0-1.408-.72-2.71-1.908-3.46-18.753-11.735-42.074-11.743-60.851 0a4.082 4.082 0 0 0-1.908 3.46v8.138c0 2.246 1.81 4.07 4.042 4.07h56.583c2.231 0 4.042-1.824 4.042-4.07z"/></g></g></svg>