<svg xmlns="http://www.w3.org/2000/svg" class="itemShare__svgShare" width="21" height="20" viewBox="0 0 21 20" role="img" aria-label="Linkedin"><title>Linkedin</title><desc></desc><defs></defs><g stroke="none" stroke-width="1" fill="none" fill-rule="evenodd"><g class="itemShare__svgShare--svgBg" fill="#a99082" transform="translate(-207.000000, -267.000000)"><g><g transform="translate(0.000000, 227.000000)"><g transform="translate(207.000000, 40.000000)"><path d="M19.075,0 L1.925,0 C0.875,0 0,0.833333333 0,1.83333333 L0,18.1666667 C0,19.1666667 0.875,20 1.925,20 L19.075,20 C20.125,20 21,19.1666667 21,18.1666667 L21,1.83333333 C21,0.833333333 20.125,0 19.075,0 L19.075,0 Z M6.125,16.6666667 L2.625,16.6666667 L2.625,7.5 L6.125,7.5 L6.125,16.6666667 L6.125,16.6666667 Z M4.375,6.41666667 L4.375,6.41666667 C3.325,6.41666667 2.625,5.75 2.625,4.91666667 C2.625,4 3.325,3.33333333 4.375,3.33333333 C5.425,3.33333333 6.125,4 6.125,4.83333333 C6.125,5.75 5.425,6.41666667 4.375,6.41666667 L4.375,6.41666667 Z M18.375,16.6666667 L14.875,16.6666667 L14.875,11.6666667 C14.875,10.3333333 13.9125,10 13.65,10 C13.3875,10 12.25,10.1666667 12.25,11.6666667 L12.25,16.6666667 L8.75,16.6666667 L8.75,7.5 L12.25,7.5 L12.25,8.83333333 C12.775,8.08333333 13.65,7.5 15.3125,7.5 C16.975,7.5 18.375,8.75 18.375,11.6666667 L18.375,16.6666667 L18.375,16.6666667 Z"></path></g></g></g></g></g></svg>
