<svg xmlns="http://www.w3.org/2000/svg" class="itemShare__svgShare" width="20px" height="20px" viewBox="0 0 20 20" role="img" aria-label="Facebook"><title>Facebook</title><desc></desc><defs></defs><g stroke="none" stroke-width="1" fill="none" fill-rule="evenodd"><g class="itemShare__svgShare--svgBg" fill="#a99082" transform="translate(-248.000000, -267.000000)"><g><g transform="translate(0.000000, 227.000000)"><g transform="translate(207.000000, 40.000000)"><path d="M42.8333333,0 C41.8333333,0 41,0.833333333 41,1.83333333 L41,18.1666667 C41,19.1666667 41.8333333,20 42.8333333,20 L51,20 L51,11.6666667 L48.5,11.6666667 L48.5,9.16666667 L51,9.16666667 L51,6.66666667 C51,4.58333333 51.8333333,3.33333333 54.3333333,3.33333333 L56.8333333,3.33333333 L56.8333333,5.83333333 L55.75,5.83333333 C55,5.83333333 54.3333333,6.5 54.3333333,7.25 L54.3333333,9.16666667 L57.6666667,9.16666667 L57.25,11.6666667 L54.3333333,11.6666667 L54.3333333,20 L59.1666667,20 C60.1666667,20 61,19.1666667 61,18.1666667 L61,1.83333333 C61,0.833333333 60.1666667,0 59.1666667,0 L42.8333333,0 Z"></path></g></g></g></g></g></svg>