<svg xmlns="http://www.w3.org/2000/svg" class="itemShare__svgShare" width="21px" height="20px" viewBox="0 0 21 20" role="img" aria-label="Vietnamwork"><title>Vietnamwork</title><desc></desc><defs></defs><g stroke="none" stroke-width="1" fill="none" fill-rule="evenodd"><g class="itemShare__svgShare--svgBg" fill="#a99082" transform="translate(-207.000000, -267.000000)"><g><g transform="translate(0.000000, 227.000000)"><g transform="translate(207.000000, 40.000000)"><path d="M18,0H3C1.3,0,0,1.3,0,3v14c0,1.7,1.3,3,3,3h15c1.7,0,3-1.3,3-3V3C21,1.3,19.7,0,18,0zM17.1,5.4c0.2,0,0.1,0.2-0.1,0.3c-0.1,0.1-0.2,0.1-0.4,0.3c0,0-0.1,0.1-0.2,0.1l-0.2,0v0.1c0,0.1-0.1,0.2-0.3,0.3c-0.1,0-0.1,0.1-0.1,0.1c0,0-0.1,0.1-0.2,0.1c-0.1,0-0.2,0.1-0.2,0.1c0,0-0.1,0.1-0.2,0.1c-0.1,0-0.2,0.1-0.2,0.1c0,0-0.2,0.1-0.4,0.1c-0.4,0-1.3,0-1.4-0.1c-0.1-0.1-0.2,0-0.3,0.2c-0.1,0.1-0.2,0.2-0.2,0.3c-0.2,0.2-0.2,0.2-0.2,0.6c0,0.4,0,0.4,0.1,0.5s0,0.1,0,0.5v0.5l0.2,0.1l0.2,0.2l0,0.2c0,0.2-0.1,0.3-0.5,0.6c-0.1,0-0.1,0.1-0.2,0.1c0,0-0.1,0.1-0.2,0.1l-0.1,0.1l0,1.2l0,1.2l0.1,0.2l0.1,0.2l-0.1,0.3l-0.1,0.3l0.1,0.3c0,0.2,0.1,0.3,0.1,0.3c0.1,0.2,0.1,0.7,0.2,1.1c0,0.3,0,0.5,0,0.5c0,0,0,0.2,0.1,0.3c0,0.2,0,0.4,0,0.4l0,0.1l-0.2,0c-0.3,0-0.3,0-0.3,0.2c0,0.1,0,0.2,0,0.3c0.1,0.3,0,0.9-0.1,0.9c0,0,0,0,0,0c0,0.2-0.5,0.3-0.7,0.1c-0.1-0.1-0.2-0.2-0.1-0.7c0-0.2,0-0.7,0-1.1l0-0.8l-0.1-0.1c0-0.1-0.1-0.1-0.1-0.2c0-0.1-0.2-0.3-0.2-0.4c0,0,0-0.1,0-0.1c0,0-0.1-0.2-0.1-0.5c0-0.2-0.1-0.5-0.1-0.5c0-0.1,0-0.3,0-0.7c0-0.6,0-0.9-0.1-1c-0.1-0.2-0.3-0.6-0.3-0.7c0-0.1,0-0.1-0.1-0.1c0,0,0-0.1-0.1-0.2c0-0.1-0.1-0.2-0.1-0.2c0,0-0.2,0.1-0.3,0.1c0,0-0.2,0.1-0.3,0.1c-0.1,0-0.3,0.1-0.3,0.1c0,0-0.2,0.1-0.3,0.1c-0.1,0-0.2,0.1-0.2,0.1c0,0-0.1,0.1-0.2,0.1c-0.1,0-0.2,0.1-0.2,0.1c0,0-0.1,0.1-0.1,0.1c0,0-0.2,0.1-0.4,0.2c-0.2,0.1-0.4,0.2-0.5,0.2c-0.1,0-0.2,0.1-0.2,0.1s-0.1,0-0.1,0.1c-0.1,0-0.1,0.1-0.2,0.2c-0.2,0.3-0.4,0.4-0.6,0.4c-0.1,0-0.1,0-0.3,0.1c-0.2,0.1-0.2,0.1-0.3,0c-0.1-0.1-0.1-0.1-0.1-0.2c0-0.1-0.1-0.2-0.2-0.2c-0.2,0-0.4-0.2-0.6-0.4c-0.2-0.2-0.2-0.4,0-0.4c0.1,0,0.5,0,0.5,0.1c0,0,0.1,0,0.3,0l0.3,0l0.1-0.1c0,0,0-0.1,0.1-0.1c0,0,0.1-0.2,0.1-0.3c0-0.1,0.2-0.2,0.2-0.2c0,0,0,0,0,0c0,0,0,0,0,0c0,0,0.1,0,0.3-0.1c0.1,0,0.3-0.1,0.3-0.1c0,0,0.1-0.1,0.1-0.1c0,0,0.2-0.1,0.2-0.1c0.1,0,0.1-0.1,0.2-0.1c0,0,0,0,0.1-0.1c0,0,0.1-0.1,0.1-0.1c0,0,0.5-0.3,0.5-0.3c0,0,0,0,0.1,0c0,0,0.1-0.1,0.2-0.1c0.1-0.1,0.2-0.1,0.2-0.1s0.2-0.2,0.4-0.3c0.2-0.2,0.4-0.4,0.5-0.4c0.1-0.1,0.1-0.4-0.1-0.4c0,0-0.1,0-0.2-0.1c-0.1,0-0.1-0.1-0.2-0.1C8.1,9,8,8.9,8,8.9c0-0.1,0.6-0.6,0.8-0.8c0,0,0.1-0.1,0.1-0.1c0,0,0.1-0.1,0.1-0.1c0.4-0.3,0.6-0.5,0.7-0.8c0-0.1,0.1-0.2,0.1-0.2c0,0,0.1-0.2,0.1-0.4C9.8,6.4,9.9,6,10,5.9C10,5.9,10,5.6,10,5.5c0,0,0-0.1-0.1-0.1c0-0.1-0.1-0.2-0.1-0.2S9.7,5,9.6,5c0,0-0.1-0.1-0.1-0.1c0-0.1-0.1-0.1,0-0.2c0.1-0.2,0.1-0.2-0.1-0.4C9.4,4.2,9.3,4.1,9.3,4c0-0.1-0.1-0.1-0.1-0.1S9.1,3.8,9.1,3.7C9,3.6,9,3.5,8.9,3.5c0,0-0.1-0.1-0.1-0.1L8.8,3.2v0.6v0.6H8.5c-0.3,0-0.4,0-0.5-0.1c0,0-0.2-0.1-0.3-0.1c-0.1,0-0.2-0.1-0.2-0.1c0,0-0.1,0-0.2-0.1L7,4.1l0-0.4c0-0.2,0-0.4,0-0.4c0,0,0-0.5,0.1-1.1c0-0.6,0.1-1.1,0.1-1.1c0.1-0.1,1,0,1.4,0.2c0,0,0.1,0,0.1,0c0,0,0,0.1,0.1,0.5c0,0.6,0,0.6,0.2,0.6c0.2,0.1,0.2,0.1,0.4,0.3c0,0.1,0.1,0.1,0.1,0.1c0,0,0.1,0,0.1,0s0,0.1,0.1,0.1c0.2,0.2,0.5,0.6,0.6,0.7c0,0.1,0.1,0.1,0.1-0.1c0-0.1,0.1-0.2,0.1-0.2c0,0,0-0.1,0-0.1c0-0.1,0-0.1,0.1-0.2c0.1-0.1,0.8-0.1,1,0c0,0,0.1,0.1,0.2,0.1c0.3,0.1,0.5,0.6,0.3,1c0,0.1-0.1,0.1-0.1,0.1c0,0,0.5,0.4,0.5,0.4c0.3,0,0.4,0.1,0.6,0.3c0.1,0.1,0.1,0.2,0.2,0.3c0,0,0.1,0.1,0.1,0.1c0,0,0.2,0.3,0.3,0.3L13.5,6h0.5c0.3,0,0.6,0,0.6,0s0,0,0.1,0c0.2,0,0.3-0.1,0.6-0.3c0.2-0.2,0.2-0.2,0.3-0.2c0.1,0.1,0.1,0,0.1-0.3l0-0.3h0.1c0.1,0,0.1,0,0.1,0.1c0,0.3,0.1,0.3,0.3,0.1c0.3-0.3,0.4-0.3,0.7-0.3c0.2,0,0.2,0,0.2,0c0,0,0,0.1,0.1,0.1c0,0,0,0.1,0,0.1c0,0,0,0.1,0,0.1c0,0,0,0.2-0.1,0.3C17,5.3,17,5.4,17.1,5.4z"></path></g></g></g></g></g></svg>