<svg xmlns="http://www.w3.org/2000/svg" width="412" height="239" viewBox="0 0 412 239"><g><g><g><path fill="#3a5cac" d="M383 198.212c0 4.282-3.498 7.788-7.775 7.788H35.774c-4.276 0-7.774-3.506-7.774-7.788V7.788C28 3.505 31.498 0 35.774 0h339.451C379.502 0 383 3.505 383 7.788v190.424"/></g><g><path fill="#3a5cac" d="M375.225 0H35.774C31.498 0 28 3.43 28 7.623V27h355V7.623C383 3.431 379.502 0 375.225 0"/></g><g><path fill="#2a478b" d="M28 33h355v-6H28z"/></g><g><path fill="#fff" d="M325 17.472c0 1.94-1.651 3.528-3.672 3.528H97.672C95.652 21 94 19.412 94 17.472v-5.944C94 9.588 95.652 8 97.672 8h223.656C323.35 8 325 9.588 325 11.528v5.944"/></g><g><path fill="#fff" d="M366 17.472c0 1.94-1.656 3.528-3.683 3.528h-23.634c-2.026 0-3.683-1.588-3.683-3.528v-5.944C335 9.588 336.657 8 338.683 8h23.634C364.344 8 366 9.588 366 11.528v5.944"/></g><g><path fill="#fff" d="M53 14.5a4.501 4.501 0 1 1-9.002-.002A4.501 4.501 0 0 1 53 14.5"/></g><g><path fill="#fff" d="M66 14.5a4.501 4.501 0 0 1-9 0 4.5 4.5 0 1 1 9 0"/></g><g><path fill="#fff" d="M80 14.5a4.5 4.5 0 1 1-9 0 4.5 4.5 0 0 1 9 0"/></g><g opacity=".4"><path fill="#fff" d="M39 198c0-1.65 1.652-3 3.671-3H369.33c2.019 0 3.671 1.35 3.671 3s-1.652 3-3.671 3H42.67c-2.019 0-3.671-1.35-3.671-3"/></g><g><path fill="#3a5cac" d="M7.511 137H4c0-13.233 10.766-24 24-24v3.513c-11.297 0-20.489 9.19-20.489 20.487"/></g><g><path fill="#3a5cac" d="M12 141a6 6 0 1 1-12 0 6 6 0 0 1 12 0"/></g><g><g><path fill="#3a5cac" d="M5.95 151.1c-.744 0-1.35-.458-1.35-1.023v-6.053c0-.566.606-1.024 1.35-1.024.746 0 1.35.458 1.35 1.024v6.053c0 .565-.604 1.023-1.35 1.023"/></g><g><path fill="#3a5cac" d="M9.55 151.1c-.744 0-1.35-.458-1.35-1.023v-6.053c0-.566.606-1.024 1.35-1.024.747 0 1.35.458 1.35 1.024v6.053c0 .565-.603 1.023-1.35 1.023"/></g><g><path fill="#3a5cac" d="M2.349 151.1c-.746 0-1.349-.458-1.349-1.023v-6.053c0-.566.603-1.024 1.349-1.024.748 0 1.351.458 1.351 1.024v6.053c0 .565-.603 1.023-1.351 1.023"/></g></g><g><path fill="#3a5cac" d="M407 137h-3.513c0-11.297-9.19-20.487-20.487-20.487V113c13.233 0 24 10.767 24 24"/></g><g><path fill="#3a5cac" d="M400 141c0 3.314 2.685 6 6 6a6 6 0 1 0-6-6"/></g><g><g><path fill="#3a5cac" d="M405.95 151.1c-.747 0-1.35-.458-1.35-1.023v-6.053c0-.566.603-1.024 1.35-1.024.746 0 1.35.458 1.35 1.024v6.053c0 .565-.604 1.023-1.35 1.023"/></g><g><path fill="#3a5cac" d="M402.35 151.1c-.746 0-1.35-.458-1.35-1.023v-6.053c0-.566.604-1.024 1.35-1.024.746 0 1.35.458 1.35 1.024v6.053c0 .565-.604 1.023-1.35 1.023"/></g><g><path fill="#3a5cac" d="M409.55 151.1c-.747 0-1.35-.458-1.35-1.023v-6.053c0-.566.603-1.024 1.35-1.024.747 0 1.35.458 1.35 1.024v6.053c0 .565-.603 1.023-1.35 1.023"/></g></g><g><path fill="#3a5cac" d="M144 239h3v-33h-3z"/></g><g><path fill="#3a5cac" d="M148 239a9 9 0 0 0-9-9 9 9 0 0 0-9 9h18"/></g><g><path fill="#3a5cac" d="M265 239h3v-33h-3z"/></g><g><path fill="#3a5cac" d="M264 239a9 9 0 0 1 9-9 9 9 0 0 1 9 9h-18"/></g><g transform="rotate(-315 312 108.5)"><g><path fill="none" stroke="#fff" stroke-linecap="round" stroke-miterlimit="50" stroke-width="2" d="M302.5 108.5h19"/></g><g><path fill="none" stroke="#fff" stroke-linecap="round" stroke-miterlimit="50" stroke-width="2" d="M312 99v19"/></g></g><g transform="rotate(-315 99 108.5)"><g><path fill="none" stroke="#fff" stroke-linecap="round" stroke-miterlimit="50" stroke-width="2" d="M89.5 108.5h19"/></g><g><path fill="none" stroke="#fff" stroke-linecap="round" stroke-miterlimit="50" stroke-width="2" d="M99 99v19"/></g></g><g><path fill="none" stroke="#fff" stroke-linecap="round" stroke-miterlimit="50" stroke-width="2" d="M168.5 145.5h75"/></g></g></g></svg>