<svg xmlns="http://www.w3.org/2000/svg" width="920" height="682" viewBox="0 0 460 341"><g><g><g><path fill="#3a5cac" d="M431 300.212c0 4.282-3.498 7.788-7.775 7.788H83.774c-4.276 0-7.774-3.506-7.774-7.788V109.788c0-4.283 3.498-7.788 7.774-7.788h339.451c4.277 0 7.775 3.505 7.775 7.788v190.424"/></g><g><path fill="#3a5cac" d="M423.225 102H83.774c-4.276 0-7.774 3.43-7.774 7.623V129h355v-19.377c0-4.192-3.498-7.623-7.775-7.623"/></g><g><path fill="#2a478b" d="M76 135h355v-6H76z"/></g><g><path fill="#fff" d="M373 119.472c0 1.94-1.651 3.528-3.672 3.528H145.672c-2.02 0-3.672-1.588-3.672-3.528v-5.944c0-1.94 1.652-3.528 3.672-3.528h223.656c2.021 0 3.672 1.588 3.672 3.528v5.944"/></g><g><path fill="#fff" d="M414 119.472c0 1.94-1.656 3.528-3.683 3.528h-23.634c-2.026 0-3.683-1.588-3.683-3.528v-5.944c0-1.94 1.657-3.528 3.683-3.528h23.634c2.027 0 3.683 1.588 3.683 3.528v5.944"/></g><g><path fill="#fff" d="M101 116.5a4.501 4.501 0 1 1-9.002-.002 4.501 4.501 0 0 1 9.002.001"/></g><g><path fill="#fff" d="M114 116.5a4.501 4.501 0 0 1-9 0 4.5 4.5 0 1 1 9 0"/></g><g><path fill="#fff" d="M128 116.5a4.5 4.5 0 1 1-9 0 4.5 4.5 0 0 1 9 0"/></g><g opacity=".4"><path fill="#fff" d="M87 300c0-1.65 1.652-3 3.671-3H417.33c2.019 0 3.671 1.35 3.671 3s-1.652 3-3.671 3H90.67c-2.019 0-3.671-1.35-3.671-3"/></g><g><path fill="#3a5cac" d="M455 239h-3.513c0-11.297-9.19-20.487-20.487-20.487V215c13.233 0 24 10.767 24 24"/></g><g><path fill="#3a5cac" d="M448 243c0 3.314 2.685 6 6 6a6 6 0 1 0-6-6"/></g><g><g><path fill="#3a5cac" d="M453.95 253.1c-.747 0-1.35-.458-1.35-1.023v-6.053c0-.566.603-1.024 1.35-1.024.746 0 1.35.458 1.35 1.024v6.053c0 .565-.604 1.023-1.35 1.023"/></g><g><path fill="#3a5cac" d="M450.35 253.1c-.746 0-1.35-.458-1.35-1.023v-6.053c0-.566.604-1.024 1.35-1.024.746 0 1.35.458 1.35 1.024v6.053c0 .565-.604 1.023-1.35 1.023"/></g><g><path fill="#3a5cac" d="M457.55 253.1c-.747 0-1.35-.458-1.35-1.023v-6.053c0-.566.603-1.024 1.35-1.024.747 0 1.35.458 1.35 1.024v6.053c0 .565-.603 1.023-1.35 1.023"/></g></g><g><path fill="#3a5cac" d="M192 341h3v-33h-3z"/></g><g><path fill="#3a5cac" d="M196 341a9 9 0 0 0-9-9 9 9 0 0 0-9 9h18"/></g><g><path fill="#3a5cac" d="M313 341h3v-33h-3z"/></g><g><path fill="#3a5cac" d="M312 341a9 9 0 0 1 9-9 9 9 0 0 1 9 9h-18"/></g><g transform="rotate(-315 360 210.5)"><g><path fill="none" stroke="#fff" stroke-linecap="round" stroke-miterlimit="20" stroke-width="2" d="M350.5 210.5h19"/></g><g><path fill="none" stroke="#fff" stroke-linecap="round" stroke-miterlimit="20" stroke-width="2" d="M360 201v19"/></g></g><g transform="rotate(-315 147 210.5)"><g><path fill="none" stroke="#fff" stroke-linecap="round" stroke-miterlimit="20" stroke-width="2" d="M137.5 210.5h19"/></g><g><path fill="none" stroke="#fff" stroke-linecap="round" stroke-miterlimit="20" stroke-width="2" d="M147 201v19"/></g></g><g><path fill="none" stroke="#fff" stroke-linecap="round" stroke-miterlimit="20" stroke-width="2" d="M216.5 247.5h75"/></g><g><g><path fill="#2a478b" d="M68.696 50.374L50.76 68.516c-.476.489-1.13.763-1.813.758l-25.496.155h-.012a2.592 2.592 0 0 1-1.813-.746L3.484 50.76a2.55 2.55 0 0 1-.758-1.813L2.57 23.451a2.599 2.599 0 0 1 .746-1.825L21.253 3.484a2.506 2.506 0 0 1 1.813-.758L48.56 2.57h.013a2.59 2.59 0 0 1 1.813.746L68.529 21.24a2.55 2.55 0 0 1 .758 1.813l.142 25.496a2.533 2.533 0 0 1-.733 1.825zm3.137-28.928a1.334 1.334 0 0 0-.386-.9L51.043.373a1.296 1.296 0 0 0-.9-.373h-.013L21.446.167c-.338.01-.66.148-.9.386L.373 20.957c-.237.245-.37.572-.373.913l.167 28.684c.01.338.148.66.386.9l20.404 20.173c.24.237.563.37.9.373h.013l28.684-.167c.338-.01.66-.148.9-.386l20.173-20.404c.237-.245.37-.572.373-.913z"/></g><g><path fill="#2a478b" d="M46.93 21.853a1.926 1.926 0 0 0-1.928 1.929c-.01.09-.027.181-.051.27a2 2 0 0 1 .051.27v12.96a1.286 1.286 0 0 1-2.571 0v-12.96a2 2 0 0 1 .051-.27 1.694 1.694 0 0 1-.051-.27v-7.715a1.904 1.904 0 0 0-.566-1.362 1.927 1.927 0 0 0-3.291 1.363v17.357a1.286 1.286 0 0 1-2.572 0V12.21a1.904 1.904 0 0 0-.566-1.363 1.878 1.878 0 0 0-1.247-.565 1.826 1.826 0 0 0-1.35.514 2.279 2.279 0 0 0-.694 1.62v6.223a.299.299 0 0 1-.026.103.4.4 0 0 1 .026.102v17.152a1.286 1.286 0 0 1-2.572 0V18.844a.398.398 0 0 1 .026-.102.303.303 0 0 1-.026-.103 1.904 1.904 0 0 0-.565-1.363 1.877 1.877 0 0 0-1.247-.566 1.826 1.826 0 0 0-1.35.515 2.279 2.279 0 0 0-.695 1.62v21.008a1.287 1.287 0 0 1-2.481.476 23.517 23.517 0 0 0-5.567-8.794 1.768 1.768 0 0 0-1.286-.553 1.797 1.797 0 0 0-1.414.707 1.775 1.775 0 0 0 0 2.083c2.841 4.14 5.978 12.986 6.325 13.976.296.822.553 1.632.81 2.417 1.209 3.703 2.25 6.891 4.899 9.115a4.934 4.934 0 0 0 3.24 1.145h13.783a2.296 2.296 0 0 0 1.812-.9c2.983-3.973 3.022-11.276 3.022-11.353v-24.39a1.904 1.904 0 0 0-.566-1.363 1.923 1.923 0 0 0-1.362-.566z"/></g><g><path fill="#2a478b" d="M51.423 48.173c0 .334-.038 8.254-3.548 12.895a4.859 4.859 0 0 1-3.857 1.929H30.237a7.562 7.562 0 0 1-4.898-1.749c-3.214-2.7-4.41-6.377-5.683-10.285-.257-.772-.514-1.569-.784-2.366-1.221-3.484-3.87-10.234-6.03-13.371a4.329 4.329 0 0 1 6.66-5.49 24.793 24.793 0 0 1 3.638 4.602V18.846a4.826 4.826 0 0 1 1.504-3.484 4.265 4.265 0 0 1 3.266-1.209c.575.03 1.14.174 1.658.424v-2.16a4.826 4.826 0 0 1 1.504-3.484 4.323 4.323 0 0 1 2.957-1.221c.103-.002.206.002.309.013a4.473 4.473 0 0 1 4.23 4.281c.6-.29 1.26-.44 1.928-.437a4.476 4.476 0 0 1 4.5 4.5v3.651a4.422 4.422 0 0 1 1.928-.437 4.476 4.476 0 0 1 4.5 4.5v24.39zM48.571 5.14l-14.554.09-10.941.064L5.14 23.423l.154 25.496 18.142 17.935 20.61-.128 4.885-.026 17.923-18.128-.141-25.496z"/></g></g><g><path fill="#2a478b" d="M33 71h5v119h-5z"/></g><g transform="rotate(-90 60.5 205)"><path fill="#3a5cac" d="M51.991 232.473H48.48c0-.646.026-32.24.076-32.873.981-12.339 11.336-22.08 23.924-22.08v3.513c-10.604 0-19.352 8.096-20.386 18.431-.068.677-.103 33.01-.103 33.01z"/></g><g><g transform="rotate(-180 35 191)"><path fill="#3a5cac" d="M41 191a6 6 0 1 1-12 0 6 6 0 0 1 12 0"/></g><g transform="rotate(-180 35 184.5)"><g><path fill="#3a5cac" d="M34.95 188.1c-.744 0-1.35-.458-1.35-1.023v-6.053c0-.566.606-1.024 1.35-1.024.746 0 1.35.458 1.35 1.024v6.053c0 .565-.604 1.023-1.35 1.023"/></g><g><path fill="#3a5cac" d="M38.55 188.1c-.744 0-1.35-.458-1.35-1.023v-6.053c0-.566.606-1.024 1.35-1.024.747 0 1.35.458 1.35 1.024v6.053c0 .565-.603 1.023-1.35 1.023"/></g><g><path fill="#3a5cac" d="M31.349 188.1c-.746 0-1.349-.458-1.349-1.023v-6.053c0-.566.603-1.024 1.349-1.024.748 0 1.351.458 1.351 1.024v6.053c0 .565-.603 1.023-1.351 1.023"/></g></g></g></g></g></svg>